<?xml version="1.0" encoding="utf-8"?>
<!-- Generator: Adobe Illustrator 17.0.0, SVG Export Plug-In . SVG Version: 6.00 Build 0)  -->
<!DOCTYPE svg PUBLIC "-//W3C//DTD SVG 1.1//EN" "http://www.w3.org/Graphics/SVG/1.1/DTD/svg11.dtd">
<svg version="1.1" id="Layer_1" xmlns="http://www.w3.org/2000/svg" xmlns:xlink="http://www.w3.org/1999/xlink" x="0px" y="0px"
	 width="250px" height="250px" viewBox="0 0 250 250" enable-background="new 0 0 250 250" xml:space="preserve">
<g>
	<path fill="#FEFD00" d="M161.975,228.345c-4.331,2.542-8.651,5.103-12.996,7.621c-7.539,4.369-15.105,8.69-22.626,13.089
		c-0.99,0.579-1.712,0.647-2.699,0.021c-2.348-1.489-4.775-2.853-7.169-4.267c2.376-4.281,4.75-8.557,6.754-13.038
		c5.729-12.815,8.974-26.245,9.742-40.227c0.433-7.884,0.118-15.771-1.073-23.618c-1.76-11.598-5.12-22.689-10.251-33.22
		c-7.125-14.624-16.902-27.207-29.323-37.744c-9.66-8.194-20.35-14.667-32.123-19.293c-14.004-5.503-28.542-8.265-43.622-7.961
		c-0.017-2.148,0.021-4.298-0.077-6.442c-0.043-0.941,0.307-1.412,1.086-1.858c8.126-4.652,16.229-9.342,24.344-14.014
		c3.925-2.26,7.859-4.503,11.79-6.754c2.715,5.041,6.101,9.619,9.938,13.837c10.537,11.581,23.311,19.648,38.357,24.067
		c11.13,3.268,22.465,4.045,33.933,2.515c7.598-1.014,14.936-3.065,21.979-6.158c12.842-5.64,23.579-13.957,32.206-25.018
		c2.276-2.919,4.156-6.103,6.288-9.116c4.773,2.627,9.509,5.317,14.143,8.185c-3.725,6.363-8.033,12.304-13.064,17.696
		c-9.046,9.696-19.593,17.312-31.699,22.771c-12.316,5.553-25.22,8.475-38.711,8.823c-3.327,0.086-6.657,0.08-10.346-0.357
		c5.823,6.772,10.837,13.648,15.122,21.054c4.31,7.45,7.832,15.255,10.688,23.303c19.569-36.157,49.458-55.399,90.769-56.237
		c-0.001,5.499-0.003,10.997-0.004,16.495c-4.606-0.101-9.192,0.25-13.731,0.955c-10.479,1.627-20.314,5.136-29.436,10.562
		c-12.926,7.689-23.12,18.073-30.296,31.299c-7.277,13.412-10.686,27.756-10.056,43.064c0.321,7.796,1.709,15.36,4.133,22.748
		C155.928,217.184,158.763,222.855,161.975,228.345z"/>
	<path fill="#FE8100" d="M16.588,69.708c15.081-0.305,29.618,2.458,43.622,7.961c11.773,4.626,22.463,11.099,32.123,19.293
		c12.421,10.537,22.199,23.12,29.323,37.744c5.131,10.531,8.491,21.622,10.251,33.22c1.191,7.848,1.507,15.735,1.073,23.618
		c-0.768,13.983-4.013,27.412-9.742,40.227c-2.003,4.481-4.378,8.757-6.754,13.038c-4.86-2.657-9.658-5.421-14.385-8.309
		c2.928-4.267,5.108-8.926,7.107-13.672c4.105-9.743,6.429-19.926,7.291-30.441c0.453-5.532,0.296-11.063-0.201-16.601
		c-0.677-7.546-2.195-14.905-4.588-22.072c-4.611-13.811-11.96-26.025-21.922-36.632c-6.996-7.449-15-13.656-23.942-18.611
		C50.53,89.986,34.069,85.96,16.588,85.99C16.588,80.563,16.588,75.136,16.588,69.708z"/>
	<path fill="#FEFD00" d="M16.588,85.99c17.481-0.031,33.942,3.995,49.257,12.481c8.942,4.955,16.947,11.162,23.942,18.611
		c9.961,10.607,17.31,22.821,21.922,36.632c2.393,7.167,3.911,14.526,4.588,22.072c0.497,5.538,0.654,11.069,0.201,16.601
		c-0.861,10.516-3.186,20.698-7.291,30.441c-2,4.746-4.179,9.405-7.107,13.672c-4.784-2.598-9.507-5.303-14.136-8.169
		c0.322-0.564,0.636-1.133,0.966-1.692c7.179-12.167,10.861-25.357,11.34-39.432c0.28-8.228-0.79-16.329-2.983-24.268
		c-3.495-12.654-9.704-23.83-18.543-33.512c-7.781-8.523-16.947-15.162-27.523-19.849c-11.035-4.89-22.588-7.153-34.63-7.063
		C16.59,97.007,16.589,91.499,16.588,85.99z"/>
	<path fill="#FE8100" d="M233.332,86.004c-41.311,0.838-71.2,20.08-90.769,56.237c-2.855-8.047-6.377-15.853-10.688-23.303
		c-4.285-7.406-9.298-14.281-15.122-21.054c3.689,0.438,7.019,0.443,10.346,0.357c13.492-0.348,26.396-3.27,38.711-8.823
		c12.106-5.459,22.653-13.075,31.699-22.771c5.031-5.392,9.339-11.332,13.064-17.696c5.183,2.956,10.369,5.908,15.548,8.87
		c2.159,1.235,4.301,2.501,6.463,3.732c0.506,0.288,0.823,0.566,0.819,1.247C233.357,70.535,233.35,78.269,233.332,86.004z"/>
	<path fill="#FE8100" d="M16.591,102.515c12.042-0.09,23.595,2.173,34.63,7.063c10.576,4.687,19.742,11.326,27.523,19.849
		c8.839,9.683,15.048,20.859,18.543,33.512c2.193,7.939,3.263,16.04,2.983,24.268c-0.478,14.075-4.161,27.265-11.34,39.432
		c-0.33,0.559-0.644,1.128-0.966,1.692c-4.889-2.632-9.675-5.442-14.429-8.309c0.24-0.318,0.511-0.618,0.717-0.957
		c5.825-9.589,8.931-20.02,9.506-31.197c0.263-5.103-0.114-10.185-1.142-15.201c-4.198-20.483-15.494-35.8-33.761-45.883
		c-10.003-5.522-20.857-7.903-32.267-7.797C16.59,113.498,16.591,108.007,16.591,102.515z"/>
	<path fill="#FE8100" d="M161.975,228.345c-3.212-5.49-6.047-11.162-8.034-17.218c-2.424-7.388-3.812-14.952-4.133-22.748
		c-0.63-15.307,2.779-29.652,10.056-43.064c7.176-13.226,17.37-23.61,30.296-31.299c9.122-5.426,18.957-8.935,29.436-10.562
		c4.539-0.705,9.125-1.056,13.731-0.955c0.001,5.501,0.001,11.002,0.002,16.503c-3.853-0.07-7.68,0.215-11.483,0.837
		c-16.195,2.65-29.609,10.257-40.2,22.759c-9.997,11.801-14.915,25.598-15.485,40.964c-0.215,5.805,0.545,11.552,1.929,17.205
		c1.691,6.907,4.542,13.317,8.241,19.368C171.562,222.899,166.854,225.771,161.975,228.345z"/>
	<path fill="#FE8100" d="M196.431,40.767c-2.133,3.013-4.012,6.198-6.288,9.116c-8.626,11.061-19.364,19.378-32.206,25.018
		c-7.042,3.093-14.381,5.144-21.979,6.158c-11.468,1.53-22.802,0.753-33.933-2.515c-15.047-4.418-27.82-12.486-38.357-24.067
		c-3.838-4.218-7.223-8.795-9.938-13.837c4.747-2.789,9.462-5.636,14.335-8.206c0.253,0.486,0.478,0.989,0.762,1.456
		c5.545,9.083,12.909,16.355,21.986,21.873c9.029,5.489,18.854,8.66,29.383,9.387c5.779,0.399,11.562,0.114,17.286-1.077
		c19.467-4.052,34.309-14.575,44.545-31.611C186.829,35.23,191.63,37.998,196.431,40.767z"/>
	<path fill="#FEFD00" d="M16.589,118.989c11.409-0.106,22.263,2.275,32.267,7.797c18.267,10.083,29.563,25.399,33.761,45.883
		c1.028,5.016,1.404,10.098,1.142,15.201c-0.575,11.177-3.681,21.608-9.506,31.197c-0.206,0.339-0.477,0.638-0.717,0.957
		c-4.769-2.62-9.5-5.309-14.126-8.178c6.139-9.866,8.826-20.538,7.601-32.156c-1.116-10.582-5.22-19.887-12.331-27.715
		C44.516,140.79,31.747,135.308,16.59,135.52C16.59,130.01,16.589,124.5,16.589,118.989z"/>
	<path fill="#FEFD00" d="M176.332,220.135c-3.7-6.051-6.55-12.461-8.241-19.368c-1.384-5.654-2.145-11.401-1.929-17.205
		c0.57-15.366,5.488-29.162,15.485-40.964c10.591-12.502,24.005-20.109,40.2-22.759c3.803-0.622,7.63-0.907,11.483-0.837
		c0,5.5,0,11-0.001,16.5c-2.899-0.061-5.782,0.078-8.649,0.567c-16.578,2.832-28.89,11.651-36.634,26.552
		c-4.721,9.085-6.321,18.824-4.888,29.036c1.023,7.289,3.454,14.018,7.517,20.155C185.895,214.586,181.114,217.361,176.332,220.135z
		"/>
	<path fill="#FEFD00" d="M182.028,32.462c-10.236,17.036-25.078,27.559-44.545,31.611c-5.724,1.192-11.507,1.476-17.286,1.077
		c-10.529-0.726-20.354-3.897-29.383-9.387c-9.077-5.518-16.441-12.791-21.986-21.873c-0.285-0.466-0.509-0.97-0.762-1.456
		c4.144-2.678,8.513-4.976,12.758-7.483c0.471-0.278,0.958-0.531,1.437-0.795c0.055,0.139,0.091,0.29,0.166,0.416
		c5.55,9.249,13.258,16.048,23.174,20.3c9.265,3.972,18.881,4.873,28.758,3.037c8.697-1.616,16.391-5.396,23.049-11.185
		c4.13-3.591,7.728-7.675,10.26-12.597C172.455,26.906,177.241,29.684,182.028,32.462z"/>
	<path fill="#FE8100" d="M16.59,135.52c15.158-0.213,27.926,5.269,38.089,16.455c7.112,7.827,11.216,17.132,12.331,27.715
		c1.225,11.618-1.462,22.289-7.601,32.156c-4.873-2.588-9.592-5.445-14.353-8.227c4.668-7.067,6.586-14.778,5.43-23.206
		c-1.191-8.675-5.327-15.708-12.072-21.186c-6.336-5.146-13.682-7.439-21.824-7.233C16.59,146.502,16.59,141.011,16.59,135.52z"/>
	<path fill="#FE8100" d="M190.676,211.811c-4.063-6.138-6.494-12.866-7.517-20.155c-1.433-10.212,0.167-19.952,4.888-29.036
		c7.744-14.9,20.056-23.72,36.634-26.552c2.867-0.49,5.749-0.628,8.649-0.567c0,5.5,0,11.001,0,16.501
		c-1.795,0.057-3.581,0.011-5.382,0.255c-8.965,1.213-16.287,5.353-21.795,12.464c-5.924,7.648-8.066,16.339-6.474,25.94
		c0.783,4.726,2.733,8.945,5.203,12.974C200.146,206.361,195.411,209.086,190.676,211.811z"/>
	<path fill="#FE8100" d="M167.668,24.128c-2.532,4.922-6.131,9.006-10.26,12.597c-6.657,5.79-14.352,9.569-23.049,11.185
		c-9.877,1.835-19.493,0.935-28.758-3.037c-9.917-4.252-17.624-11.051-23.174-20.3c-0.076-0.126-0.112-0.277-0.166-0.416
		c4.766-2.762,9.467-5.639,14.35-8.199c0.23,0.442,0.425,0.906,0.694,1.323c7.59,11.774,21.932,17.519,35.468,14.123
		c9.015-2.262,15.918-7.434,20.69-15.426C158.198,18.694,162.933,21.411,167.668,24.128z"/>
	<path fill="#FEFD00" d="M16.59,151.993c8.142-0.206,15.488,2.087,21.824,7.233c6.744,5.478,10.881,12.512,12.072,21.186
		c1.157,8.428-0.762,16.139-5.43,23.206c-4.791-2.78-9.582-5.559-14.373-8.339c4.342-5.756,4.987-11.962,1.577-18.255
		c-3.302-6.095-8.745-8.8-15.671-8.49C16.589,163.021,16.59,157.507,16.59,151.993z"/>
	<path fill="#FEFD00" d="M204.881,203.635c-2.47-4.029-4.419-8.248-5.203-12.974c-1.592-9.601,0.55-18.292,6.474-25.94
		c5.508-7.11,12.83-11.251,21.795-12.464c1.8-0.244,3.587-0.198,5.382-0.255c0,5.505,0.001,11.01,0.001,16.515
		c-5.068-0.297-9.523,1.256-13.01,4.914c-5.925,6.216-6.256,14.966-1.047,21.863C214.475,198.076,209.678,200.855,204.881,203.635z"
		/>
	<path fill="#FEFD00" d="M153.462,15.978c-4.772,7.992-11.675,13.164-20.69,15.426c-13.536,3.396-27.878-2.348-35.468-14.123
		c-0.269-0.417-0.464-0.881-0.694-1.323c4.621-2.898,9.367-5.582,14.149-8.204c3.998,6.149,9.64,8.973,16.913,7.859
		c5.009-0.767,8.979-3.385,11.462-7.965C143.911,10.425,148.687,13.201,153.462,15.978z"/>
	<path fill="#FE8100" d="M16.589,168.535c6.926-0.31,12.369,2.395,15.671,8.49c3.41,6.293,2.765,12.499-1.577,18.255
		c-4.498-2.567-8.992-5.141-13.499-7.692c-0.51-0.289-0.656-0.653-0.653-1.21C16.562,180.43,16.573,174.482,16.589,168.535z"/>
	<path fill="#FE8100" d="M219.273,195.296c-5.209-6.897-4.878-15.647,1.047-21.863c3.487-3.659,7.942-5.212,13.01-4.914
		c0.018,5.951,0.033,11.901,0.061,17.852c0.002,0.532-0.076,0.93-0.609,1.232C228.27,190.151,223.774,192.727,219.273,195.296z"/>
	<path fill="#FE8100" d="M139.135,7.649c-2.483,4.579-6.453,7.197-11.462,7.965c-7.273,1.114-12.915-1.71-16.913-7.859
		c4.546-2.654,9.098-5.296,13.628-7.976c0.534-0.316,0.887-0.179,1.339,0.085C130.192,2.466,134.665,5.055,139.135,7.649z"/>
</g>
</svg>
