<?xml version="1.0" encoding="utf-8"?>
<!-- Generator: Adobe Illustrator 17.0.0, SVG Export Plug-In . SVG Version: 6.00 Build 0)  -->
<!DOCTYPE svg PUBLIC "-//W3C//DTD SVG 1.1//EN" "http://www.w3.org/Graphics/SVG/1.1/DTD/svg11.dtd">
<svg version="1.1" id="Layer_1" xmlns="http://www.w3.org/2000/svg" xmlns:xlink="http://www.w3.org/1999/xlink" x="0px" y="0px"
	 width="500px" height="85.009px" viewBox="0 0 500 85.009" enable-background="new 0 0 500 85.009" xml:space="preserve">
<path fill="#2893FF" d="M411.729,30.695c-0.622-0.544-1.209-1.072-1.812-1.58c-1.905-1.605-3.956-2.976-6.28-3.912
	c-1.973-0.793-4.018-1.157-6.134-0.942c-2.352,0.239-4.258,1.319-5.675,3.225c-0.138,0.186-0.257,0.388-0.361,0.594
	c-0.214,0.43-0.205,0.491,0.24,0.712c0.831,0.413,1.672,0.809,2.516,1.194c3.464,1.581,6.754,3.443,9.691,5.895
	c2.915,2.434,5.02,5.381,5.908,9.122c0.091,0.384,0.254,0.706,0.566,0.978c3.159,2.744,4.959,6.249,5.533,10.351
	c1.026,7.335-0.518,13.994-5.443,19.704c-3.068,3.557-6.772,6.175-11.262,7.624c-2.195,0.708-4.451,1.073-6.757,1.178
	c-5.24,0.238-10.182-0.987-14.962-3.009c-1.092-0.462-2.139-1.03-3.233-1.488c-0.598-0.251-0.756-0.62-0.742-1.239
	c0.04-1.78,0.01-3.562,0.018-5.343c0.002-0.357-0.027-0.634-0.436-0.789c-1.589-0.605-3.139-1.3-4.672-2.09
	c-0.182,0.274-0.01,0.487,0.04,0.682c0.976,3.767,1.966,7.531,2.955,11.295c0.013,0.05,0.037,0.096,0.049,0.146
	c0.162,0.67,0.132,0.725-0.53,0.725c-5.73,0.004-11.461,0.003-17.191,0c-0.59,0-0.609-0.007-0.721-0.63
	c-0.399-2.206-0.782-4.414-1.173-6.621c-0.086-0.481-0.176-0.963-0.269-1.443c-0.138-0.71-0.14-0.712-0.885-0.714
	c-0.852-0.003-1.704,0.002-2.556-0.001c-0.68-0.003-0.687-0.004-0.815-0.692c-0.241-1.291-0.493-2.581-0.697-3.879
	c-0.068-0.435-0.261-0.546-0.662-0.545c-2.917,0.01-5.834,0.012-8.75-0.002c-0.411-0.002-0.603,0.133-0.679,0.541
	c-0.619,3.37-1.251,6.738-1.879,10.107c-0.212,1.14-0.432,2.279-0.629,3.42c-0.061,0.353-0.232,0.494-0.575,0.462
	c-0.077-0.007-0.155-0.001-0.232-0.001c-5.318,0-10.635,0.001-15.952-0.002c-0.225,0-0.461,0.044-0.688-0.085
	c-0.012-0.352,0.119-0.664,0.202-0.984c0.65-2.52,1.305-5.04,1.959-7.559c0.02-0.075,0.051-0.146,0.068-0.222
	c0.108-0.492,0.078-0.544-0.417-0.556c-0.568-0.014-1.136-0.004-1.704-0.004c-0.955,0-1.91-0.004-2.865,0.001
	c-0.684,0.004-0.693,0.009-0.694,0.674c-0.005,2.039-0.033,4.079,0.017,6.118c0.016,0.637-0.227,0.902-0.768,1.138
	c-2.493,1.087-5.051,1.989-7.75,2.344c-7.362,0.97-13.926-0.725-19.379-5.989c-2.441-2.356-4.315-5.122-5.906-8.096
	c-0.106-0.198-0.165-0.43-0.414-0.63c-0.101,0.292-0.059,0.564-0.059,0.824c-0.004,4.027-0.002,8.053-0.003,12.08
	c0,0.181-0.008,0.362-0.001,0.542c0.012,0.301-0.139,0.417-0.426,0.404c-0.18-0.009-0.362,0-0.542,0
	c-11.667,0-23.334,0.001-35.002-0.001c-1.109,0-0.987,0.11-0.988-0.998c-0.004-2.426,0.004-4.853-0.004-7.279
	c-0.004-1.31,0.158-1.12-1.169-1.13c-1.265-0.01-2.529,0.002-3.795-0.004c-0.664-0.003-0.664-0.012-0.675-0.699
	c-0.002-0.129,0-0.258,0-0.387c0-23.618,0-47.237,0.001-70.855c0-1.157-0.112-1.025,1.043-1.026
	c4.982-0.004,9.963-0.002,14.945-0.002c0.155,0,0.31-0.003,0.465,0.001c0.582,0.016,0.593,0.017,0.594,0.617
	c0.005,2.529,0.002,5.059,0.002,7.589c0,0.155-0.001,0.31,0,0.465c0.007,0.73,0.008,0.736,0.711,0.738
	c1.342,0.004,2.684,0,4.027,0.002c0.984,0.001,0.901-0.067,0.902,0.936c0.001,15.513,0.001,31.027,0.001,46.54
	c0,1.188,0,1.188,1.189,1.188c3.898,0,7.796,0.002,11.693-0.004c0.273,0,0.561,0.074,0.821-0.077
	c0.079-0.265-0.089-0.456-0.179-0.66c-1.574-3.586-2.6-7.327-3.208-11.193c-0.538-3.423-0.782-6.868-0.711-10.328
	c0.14-6.865,1.302-13.542,3.981-19.898c2.354-5.584,5.941-10.186,11.079-13.49c3.345-2.151,7.017-3.279,10.987-3.563
	c4.31-0.308,8.333,0.716,12.26,2.345c0.423,0.176,0.565,0.413,0.559,0.867c-0.024,2.013-0.008,4.027-0.012,6.04
	c-0.002,0.874,0.053,0.758,0.707,0.931c1.548,0.412,3.046,0.964,4.52,1.592c0.325,0.139,0.49,0.293,0.489,0.672
	c-0.011,5.266-0.008,10.531-0.011,15.797c0,0.071,0.017,0.158-0.15,0.217c-0.268-0.097-0.471-0.371-0.714-0.583
	c-1.783-1.551-3.769-2.715-6.135-3.097c-3.88-0.628-7.136,0.502-9.677,3.54c-1.931,2.308-3.025,5.022-3.75,7.901
	c-0.669,2.658-0.986,5.367-1.131,8.103c-0.082,1.522-0.139,3.043-0.094,4.564c0.083,2.839,0.345,5.658,1.034,8.426
	c0.122,0.49,0.354,0.819,0.781,1.078c2.411,1.46,4.971,1.754,7.665,1.007c1.913-0.531,3.619-1.488,5.237-2.614
	c0.372-0.259,0.743-0.523,1.224-0.863c0,4.259,0,8.373,0,12.484c0.37,0.074,0.614-0.095,0.867-0.204
	c1.598-0.686,3.056-1.607,4.449-2.641c0.338-0.252,0.473-0.58,0.573-0.966c1.291-4.99,2.59-9.978,3.892-14.965
	c2.448-9.376,4.9-18.751,7.349-28.126c1.713-6.558,3.423-13.117,5.135-19.674c0.18-0.689,0.182-0.695,0.856-0.695
	c5.188-0.002,10.377-0.002,15.565,0c0.654,0,0.66,0.005,0.826,0.631c0.713,2.69,1.424,5.382,2.134,8.073
	c0.186,0.702,0.184,0.704,0.932,0.706c0.619,0.002,1.239-0.004,1.858,0.002c0.609,0.006,0.614,0.01,0.773,0.612
	c0.712,2.69,1.426,5.382,2.133,8.073c2.569,9.771,5.135,19.542,7.702,29.312c1.676,6.381,3.354,12.762,5.031,19.142
	c0.058,0.219,0.125,0.435,0.286,0.643c0-5.261,0-10.521,0-15.75c0.294-0.159,0.384,0.059,0.502,0.164
	c1.663,1.474,3.388,2.866,5.269,4.058c2.307,1.462,4.753,2.6,7.456,3.098c2.296,0.422,4.578,0.429,6.753-0.56
	c2.066-0.939,3.655-2.397,4.607-4.491c0.139-0.304,0.251-0.623,0.342-0.944c0.216-0.76,0.208-0.763-0.46-1.152
	c-1.183-0.687-2.399-1.31-3.62-1.928c-3.353-1.696-6.506-3.683-9.276-6.251c-2.478-2.297-4.327-4.976-5.168-8.283
	c-0.14-0.546-0.385-0.976-0.798-1.364c-2.525-2.373-4.298-5.2-5.044-8.614c-0.492-2.255-0.628-4.531-0.421-6.841
	c0.256-2.867,0.963-5.598,2.369-8.104c3.161-5.633,7.882-9.237,14.195-10.711c2.424-0.566,4.887-0.803,7.369-0.719
	c3.96,0.133,7.751,1.062,11.402,2.579c0.785,0.326,1.55,0.705,2.338,1.026c0.4,0.163,0.518,0.414,0.514,0.832
	c-0.02,1.885-0.01,3.768-0.008,5.653c0.001,0.819,0.002,0.822,0.768,1.085c1.441,0.493,2.846,1.076,4.22,1.732
	c0.202,0.096,0.388,0.265,0.65,0.225c0.132-0.267,0.063-0.553,0.064-0.828c0.006-3.381,0.004-6.763,0.004-10.144
	c0-0.181,0.008-0.362,0-0.542c-0.014-0.29,0.11-0.431,0.408-0.418c0.18,0.008,0.362,0,0.542,0c14.739,0,29.478-0.001,44.217,0.001
	c1.056,0,0.95-0.098,0.952,0.956c0.004,2.504,0.001,5.007,0.001,7.512c0,0.155,0.012,0.31-0.001,0.465
	c-0.034,0.381,0.156,0.485,0.508,0.482c1.368-0.011,2.737-0.004,4.104-0.004c0.206,0,0.414,0.011,0.619-0.001
	c0.318-0.019,0.491,0.1,0.473,0.44c-0.008,0.154,0,0.31,0,0.465c0,4.336,0,8.673,0,13.009c0,0.129-0.007,0.258,0.001,0.387
	c0.02,0.319-0.107,0.486-0.446,0.466c-0.18-0.011-0.362-0.001-0.542-0.001c-4.26,0-8.518,0-12.778,0
	c-0.155,0-0.31-0.004-0.465,0.001c-0.583,0.016-0.584,0.017-0.598,0.616c-0.005,0.206-0.001,0.413-0.001,0.619
	c0,18.637,0.001,37.273-0.002,55.91c0,1.202,0.148,1.056-1.083,1.057c-4.903,0.005-9.806,0.002-14.709,0.002
	c-0.155,0-0.31,0.001-0.465,0c-0.755-0.006-0.76-0.006-0.76-0.763c-0.002-2.581-0.001-5.163-0.001-7.744
	c0-0.181-0.005-0.362-0.003-0.542c0.004-0.265-0.138-0.366-0.388-0.36c-0.181,0.005-0.362-0.002-0.542-0.002
	c-1.368,0-2.737,0.004-4.104-0.002c-0.651-0.003-0.652-0.011-0.666-0.631c-0.004-0.181-0.001-0.362-0.001-0.542
	c0-15.435,0-30.872,0-46.307c0-0.155,0.001-0.31,0-0.465c-0.003-0.844-0.003-0.846-0.839-0.847c-2.272-0.001-4.543,0-6.814-0.001
	c-0.206,0-0.413-0.001-0.619-0.009c-0.185-0.007-0.279-0.113-0.283-0.296c-0.005-0.206-0.007-0.413-0.007-0.619
	c0-2.478,0-4.956,0-7.434c0-0.155-0.015-0.311,0.002-0.465c0.046-0.42-0.161-0.528-0.545-0.524
	c-1.342,0.014-2.684,0.005-4.027,0.005c-0.232,0-0.465,0.012-0.697-0.001c-0.337-0.019-0.468,0.138-0.446,0.463
	c0.012,0.18,0.001,0.362,0.001,0.542c0,4.233,0.001,8.467-0.003,12.7C411.812,30.133,411.866,30.39,411.729,30.695z M273.29,60.416
	c-0.071,0.101-0.094,0.119-0.094,0.138c-0.007,2.6-0.005,5.199-0.025,7.799c-0.004,0.455,0.238,0.487,0.584,0.485
	c1.441-0.008,2.883-0.003,4.325-0.006c0.122,0,0.262,0.019,0.351-0.188c-0.214-0.59-0.499-1.178-0.936-1.699
	c-1.078-1.284-2.013-2.671-2.858-4.117C274.182,62.052,273.759,61.259,273.29,60.416z M341.716,42.155
	c-0.051-0.002-0.102-0.004-0.154-0.005c-0.026,0.095-0.057,0.19-0.075,0.287c-0.36,1.975-0.716,3.95-1.075,5.925
	c-0.194,1.063-0.391,2.126-0.583,3.189c-0.121,0.669-0.085,0.719,0.57,0.725c0.825,0.007,1.65,0.007,2.475,0
	c0.648-0.006,0.664-0.032,0.554-0.652c-0.348-1.95-0.691-3.903-1.043-5.853C342.169,44.564,341.94,43.361,341.716,42.155z"/>
<path fill="#2893FF" d="M36.409,52.596c1.274,1.101,2.433,2.124,3.678,3.042c2.341,1.726,4.825,3.18,7.626,4.028
	c2.122,0.643,4.295,0.971,6.489,0.517c3.368-0.696,5.802-2.574,6.975-5.893c0.325-0.921,0.288-0.928-0.524-1.4
	c-2.053-1.194-4.231-2.151-6.277-3.358c-2.633-1.553-5.102-3.318-7.263-5.495c-2.174-2.19-3.719-4.737-4.443-7.755
	c-0.093-0.39-0.277-0.697-0.572-0.976c-1.547-1.462-2.907-3.072-3.864-4.994c-0.976-1.962-1.521-4.038-1.742-6.218
	c-0.33-3.256-0.087-6.461,1.037-9.531C39.945,7.964,44.552,3.57,51.223,1.362c2.041-0.675,4.153-0.98,6.297-1.135
	c5.907-0.43,11.394,1.043,16.668,3.56c0.373,0.179,0.467,0.4,0.465,0.774c-0.012,1.936-0.007,3.871-0.005,5.807
	c0.001,0.688,0.005,0.688,0.653,0.914c1.56,0.544,3.081,1.179,4.575,1.886c0.35,0.165,0.487,0.376,0.486,0.769
	c-0.012,5.472-0.008,10.944-0.009,16.416c0,0.095,0.029,0.204-0.127,0.315c-0.484-0.424-0.977-0.863-1.477-1.292
	c-1.969-1.689-4.084-3.149-6.499-4.14c-2.068-0.848-4.219-1.238-6.436-0.952c-2.362,0.305-4.288,1.428-5.619,3.448
	c-0.517,0.784-0.488,0.839,0.355,1.24c1.374,0.653,2.766,1.27,4.131,1.943c2.835,1.394,5.494,3.062,7.917,5.103
	c2.802,2.361,4.802,5.232,5.712,8.811c0.132,0.517,0.352,0.933,0.76,1.297c3.034,2.704,4.747,6.117,5.351,10.111
	c0.003,0.021,0.031,0.038,0.141,0.163c0-0.474,0-0.84,0-1.208c0-17.577-0.001-35.154,0.003-52.731c0-1.27-0.159-1.108,1.106-1.109
	c5.007-0.006,10.015-0.002,15.022-0.002c0.129,0,0.258-0.002,0.387,0c0.649,0.012,0.655,0.012,0.656,0.71
	c0.003,2.169,0.001,4.336,0.001,6.505c0,0.542-0.008,1.084,0.003,1.626c0.011,0.549,0.018,0.564,0.567,0.567
	c1.471,0.009,2.943,0,4.414,0.004c0.715,0.002,0.722,0.008,0.723,0.724c0.003,2.504,0.001,5.007,0.001,7.511
	c0,21.243,0,42.485-0.001,63.727c0,1.124,0.117,1.005-0.981,1.006c-5.059,0.003-10.118,0.001-15.177,0.001
	c-0.181,0-0.363-0.014-0.541,0.002c-0.387,0.034-0.483-0.162-0.478-0.511c0.014-0.903,0.004-1.807,0.004-2.71
	c0-1.833,0.003-3.665-0.002-5.498c-0.002-0.683-0.009-0.691-0.676-0.693c-1.42-0.005-2.84,0.001-4.259-0.002
	c-0.765-0.002-0.771-0.005-0.771-0.756c-0.002-2.762-0.001-5.523-0.001-8.285c0-0.253,0-0.505,0-0.759
	c-0.351,1.06-0.561,2.14-0.885,3.192c-0.916,2.978-2.411,5.635-4.401,8.019c-2.139,2.563-4.656,4.672-7.601,6.261
	c-2.29,1.236-4.728,2.042-7.284,2.498c-2.325,0.415-4.675,0.469-7.02,0.295c-3.102-0.23-6.101-0.98-9.022-2.037
	c-1.943-0.703-3.82-1.554-5.679-2.451c-0.471-0.227-0.613-0.511-0.604-1.017c0.03-1.78,0.013-3.562,0.012-5.342
	c-0.001-0.778-0.003-0.778-0.707-1.057c-1.512-0.598-2.982-1.288-4.44-2.007c-0.39-0.193-0.573-0.41-0.571-0.88
	c0.018-5.653,0.012-11.305,0.013-16.957C36.37,52.936,36.387,52.838,36.409,52.596z"/>
<path fill="#2893FF" d="M153.163,53.047c-2.099,5.969-4.197,11.938-6.295,17.908c-0.057,0.006-0.114,0.011-0.171,0.017
	c-1.435-4.1-2.87-8.2-4.357-12.449c-0.572,1.062-0.727,2.115-1.287,3.207c-2.254-6.457-4.456-12.76-6.657-19.064
	c-0.031,0.007-0.064,0.014-0.095,0.021c0,0.648-0.039,1.299,0.012,1.944c0.045,0.567,0.073,1.132,0.089,1.699
	c0.356,12.232,0.096,24.467,0.174,36.701c0.004,0.689-0.008,0.699-0.666,0.7c-5.085,0.003-10.17,0.003-15.256,0
	c-0.674,0-0.683-0.009-0.684-0.684c-0.004-2.478-0.001-4.956-0.001-7.434c0-0.181,0.002-0.362,0-0.542
	c-0.009-0.737-0.009-0.744-0.719-0.748c-1.058-0.006-2.116-0.001-3.175-0.002c-0.465,0-0.93-0.007-1.394,0.001
	c-0.288,0.005-0.433-0.111-0.42-0.41c0.008-0.18-0.001-0.362-0.001-0.542c0-23.696,0-47.392,0.001-71.088
	c0-1.014-0.089-0.93,0.902-0.93c5.627-0.002,11.255-0.003,16.882,0.002c0.84,0.001,0.788-0.163,1.138,0.8
	c0.96,2.641,1.93,5.279,2.898,7.918c0.252,0.686,0.256,0.666,0.986,0.697c0.505,0.021,1.12-0.221,1.488,0.138
	c0.319,0.312,0.406,0.872,0.574,1.33c1.584,4.335,3.162,8.672,4.749,13.006c0.095,0.26,0.124,0.559,0.392,0.799
	c0.487-1.326,0.968-2.629,1.444-3.934c2.449-6.709,4.896-13.419,7.345-20.128c0.226-0.62,0.229-0.627,0.865-0.627
	c5.783-0.002,11.564-0.002,17.347,0c0.717,0,0.723,0.007,0.724,0.721c0.003,2.529,0.001,5.059,0.001,7.589
	c0,0.181-0.006,0.362,0.002,0.542c0.021,0.532,0.028,0.55,0.588,0.554c1.368,0.009,2.737,0.003,4.104,0.003
	c0.181,0,0.362,0.009,0.542,0.001c0.3-0.013,0.416,0.136,0.405,0.422c-0.008,0.206,0,0.413,0,0.619c0,23.644,0,47.289,0,70.933
	c0,0.078,0.001,0.155,0,0.232c-0.006,0.756-0.006,0.762-0.763,0.762c-5.034,0.002-10.067,0.002-15.1,0
	c-0.739,0-0.743-0.006-0.744-0.779c-0.002-2.633,0.001-5.266-0.002-7.899c-0.001-0.723-0.006-0.729-0.715-0.731
	c-1.471-0.004-2.943,0.004-4.414-0.004c-0.556-0.003-0.558-0.018-0.576-0.56c-0.006-0.181-0.001-0.362-0.001-0.542
	c0-6.402,0-12.803,0-19.205c0-0.31,0-0.618,0-0.928C153.267,53.07,153.215,53.059,153.163,53.047z"/>
<path fill="#2893FF" d="M209.524,27.073c0-8.26-0.001-16.519,0.001-24.778c0-1.05-0.096-0.944,0.963-0.945
	c5.033-0.003,10.067-0.001,15.099-0.001c0.129,0,0.258-0.003,0.387,0.001c0.581,0.016,0.584,0.017,0.594,0.616
	c0.007,0.387,0.001,0.774,0.001,1.161c0,2.272-0.001,4.542,0.001,6.814c0.001,0.814,0.003,0.817,0.784,0.818
	c1.29,0.002,2.581-0.004,3.871,0.002c1.184,0.005,1.048-0.122,1.049,1.017c0.003,8.414,0.002,16.829,0.002,25.243
	c0,8.104,0.008,16.209-0.006,24.314c-0.004,2.638-0.277,5.254-0.967,7.807c-2.144,7.944-7.255,12.886-15.209,14.881
	c-3.664,0.92-7.395,0.999-11.144,0.676c-2.85-0.246-5.602-0.886-8.198-2.099c-5.076-2.371-8.419-6.276-10.12-11.595
	c-0.18-0.561-0.456-1.004-0.875-1.412c-2.788-2.707-4.431-6.05-5.33-9.787c-0.477-1.984-0.721-4-0.83-6.041
	c-0.101-1.91-0.078-3.817-0.079-5.727c-0.007-15.228-0.004-30.456-0.002-45.684c0-1.121-0.112-1.004,0.984-1.004
	c5.007-0.003,10.015-0.001,15.022-0.001c0.129,0,0.258-0.003,0.387,0.001c0.579,0.016,0.583,0.017,0.593,0.618
	c0.007,0.387,0.001,0.774,0.001,1.161c0,2.272-0.001,4.542,0.001,6.814c0.001,0.812,0.003,0.815,0.786,0.816
	c1.342,0.002,2.684,0,4.027,0.001c0.936,0,0.892-0.068,0.892,0.872c-0.001,5.136,0,10.273,0,15.409c0,10.454,0,20.906,0.001,31.36
	c0,0.749,0.005,1.497,0.024,2.245c0.016,0.603,0.027,0.62,0.608,0.617c2.698-0.011,4.462-1.219,5.532-3.601
	c0.576-1.282,0.83-2.65,0.999-4.037c0.166-1.362,0.152-2.729,0.151-4.096C209.523,42.042,209.524,34.558,209.524,27.073z"/>
</svg>
